<svg width="18" height="18" viewBox="0 0 18 18" fill="none" xmlns="http://www.w3.org/2000/svg">
<path d="M10.2457 4.19711C11.0444 3.25644 11.8376 2.85951 12.4668 2.7081C12.7787 2.63304 13.0433 2.62002 13.2389 2.62643C13.3367 2.62964 13.4164 2.63767 13.4745 2.64483C13.4974 2.64766 13.5178 2.65047 13.5321 2.65243L13.5409 2.65363L13.5439 2.65404C14.0126 2.65943 14.5519 2.87413 14.9744 3.22247C15.4076 3.57971 15.7619 4.11535 15.7619 4.7815C15.7619 5.35134 15.6617 5.87267 15.3736 6.30709C15.082 6.74664 14.628 7.05259 14.0085 7.24719C13.8213 7.30599 13.6219 7.2019 13.5631 7.01471C13.5043 6.82752 13.6084 6.62811 13.7956 6.56932C14.3045 6.40946 14.6028 6.18371 14.7815 5.91435C14.9635 5.63985 15.0514 5.27503 15.0514 4.7815C15.0514 4.38427 14.8414 4.03376 14.5224 3.77069C14.198 3.50321 13.8054 3.36446 13.5259 3.36446C13.4924 3.36446 13.4552 3.35912 13.4466 3.35788L13.4451 3.35767L13.4334 3.35607C13.4194 3.35415 13.4051 3.35218 13.3876 3.35003C13.3446 3.34473 13.2868 3.33891 13.2156 3.33658C13.0732 3.33191 12.8735 3.34105 12.633 3.39891C12.1575 3.51334 11.4934 3.82533 10.7874 4.65696C10.298 5.23335 9.94022 6.0109 9.70495 6.77375C9.46967 7.53662 9.36719 8.25103 9.36719 8.68055V15.7697C9.36719 15.9659 9.20813 16.125 9.01192 16.125C8.81572 16.125 8.65666 15.9659 8.65666 15.7697V8.66447C8.65666 8.23137 8.55943 7.51332 8.33688 6.74756C8.11417 5.98124 7.77562 5.20095 7.31346 4.62324C6.64698 3.79015 6.02332 3.48143 5.5826 3.36889C5.35939 3.31189 5.17446 3.30299 5.04313 3.30756C4.9774 3.30984 4.92412 3.31553 4.88438 3.32073C4.86816 3.32285 4.85498 3.32477 4.84179 3.3267L4.8306 3.32832L4.82963 3.32847C4.82269 3.32954 4.78395 3.33553 4.74877 3.33553C4.49661 3.33553 4.13271 3.46958 3.8281 3.73611C3.53022 3.99676 3.32771 4.34971 3.32771 4.75658C3.32771 5.25434 3.41142 5.62349 3.58457 5.90053C3.7532 6.17033 4.0321 6.39321 4.50585 6.55113C4.69199 6.61317 4.79258 6.81436 4.73054 7.0005C4.66849 7.18664 4.4673 7.28724 4.28116 7.22519C3.68911 7.02784 3.2575 6.71783 2.98204 6.2771C2.71111 5.84361 2.61719 5.32461 2.61719 4.75658C2.61719 4.09766 2.94758 3.56245 3.36022 3.20139C3.76023 2.85137 4.27516 2.63147 4.72871 2.62514L5.7584 2.68045C6.36109 2.83436 7.11371 3.23616 7.86829 4.17938C8.41047 4.85711 8.78245 5.73471 9.01918 6.54927C9.02103 6.55566 9.02288 6.56204 9.02472 6.56842C9.02514 6.56707 9.02556 6.56571 9.02598 6.56435C9.27717 5.7499 9.67166 4.87331 10.2457 4.19711Z" fill="#D7BD8C"/>
</svg>
