<svg width="20" height="19" viewBox="0 0 20 19" fill="none" xmlns="http://www.w3.org/2000/svg">
<path d="M6.66624 5.71382C10.4816 5.71382 13.3325 4.20553 13.3325 2.85688C13.3325 1.50835 10.4816 0 6.66624 0C2.85091 0 0 1.50835 0 2.85688C0 4.20553 2.85085 5.71382 6.66624 5.71382Z" fill="#D7BD8C"/>
<path d="M6.66624 17.1419C7.22313 17.1419 7.75912 17.1095 8.26896 17.0505C7.8392 16.4982 7.48379 15.8853 7.21754 15.2271C7.0346 15.2333 6.85103 15.2375 6.66618 15.2375C4.48607 15.2375 2.42147 14.8055 0.852854 14.0212C0.543995 13.8668 0.259774 13.7008 0 13.5252V14.285C0 15.6336 2.85085 17.1419 6.66624 17.1419Z" fill="#D7BD8C"/>
<path d="M6.66631 13.3326C6.68586 13.3326 6.70511 13.3323 6.7246 13.3322C6.68555 13.02 6.66516 12.7021 6.66516 12.3795C6.66516 12.0571 6.68548 11.7393 6.7246 11.4274C6.70511 11.4274 6.6858 11.4281 6.66631 11.4281C4.4862 11.4281 2.42166 10.9961 0.852981 10.2118C0.544059 10.0574 0.259774 9.89146 0 9.71588V10.4756C6.34989e-05 11.8242 2.85091 13.3326 6.66631 13.3326Z" fill="#D7BD8C"/>
<path d="M6.66631 9.52308C6.85528 9.52308 7.04171 9.51927 7.2258 9.51203C7.52145 8.78668 7.92549 8.1167 8.41812 7.52254C7.84777 7.58541 7.26161 7.61874 6.66631 7.61874C4.4862 7.61874 2.42166 7.18676 0.852981 6.40242C0.544059 6.24793 0.259774 6.08207 0 5.90643V6.66626C6.34989e-05 8.01485 2.85091 9.52308 6.66631 9.52308Z" fill="#D7BD8C"/>
<path d="M9.52388 9.2226C9.11177 9.84216 8.81732 10.5463 8.67248 11.303C8.60562 11.6518 8.57031 12.0116 8.57031 12.3796C8.57031 12.6562 8.59051 12.9283 8.62867 13.1945C8.72246 13.8486 8.92737 14.4671 9.22365 15.0305C9.53454 15.6218 9.94583 16.1523 10.435 16.599C11.4514 17.5274 12.8033 18.0945 14.2852 18.0945C17.4364 18.0945 20.0001 15.5308 20.0001 12.3796C20.0001 9.22831 17.4364 6.66467 14.2852 6.66467C13.9595 6.66467 13.6402 6.69249 13.3292 6.74506C11.745 7.01296 10.3805 7.93491 9.52388 9.2226Z" fill="#D7BD8C"/>
</svg>
