<svg width="18" height="18" viewBox="0 0 18 18" fill="none" xmlns="http://www.w3.org/2000/svg">
<g clip-path="url(#clip0_8298_81277)">
<path d="M9.10749 8.70745C12.5725 8.09995 15.1375 6.20246 14.83 4.46996C14.5225 2.73746 11.4625 1.82996 7.99746 2.43746C4.53246 3.04496 1.9675 4.94246 2.275 6.67496C2.5825 8.40746 5.63499 9.31495 9.10749 8.70745Z" stroke="url(#paint0_linear_8298_81277)" stroke-width="1.5" stroke-miterlimit="10" stroke-linecap="round"/>
<path d="M3.17047 7.95742C3.05797 8.79742 3.62048 9.68244 4.58798 10.4174C5.86298 11.3024 7.31798 11.8874 8.84798 12.1274C11.518 12.5924 13.9405 12.1649 15.058 11.1599C15.3805 10.8899 15.598 10.5149 15.6805 10.1024C15.8605 9.02993 14.9605 7.89743 13.4155 7.04993" stroke="url(#paint1_linear_8298_81277)" stroke-width="1.5" stroke-miterlimit="10" stroke-linecap="round"/>
<path d="M15.1109 11.1525C15.3059 11.3325 15.4634 11.55 15.5759 11.7975C15.6884 12.0375 15.7484 12.3075 15.7559 12.57C15.7559 14.325 12.9134 15.75 9.35841 15.75C5.80341 15.75 2.96094 14.3325 2.96094 12.57C2.96094 11.7525 3.57592 11.01 4.58842 10.4475" stroke="url(#paint2_linear_8298_81277)" stroke-width="1.5" stroke-miterlimit="10" stroke-linecap="round"/>
</g>
<defs>
<linearGradient id="paint0_linear_8298_81277" x1="3.09033" y1="3.21819" x2="15.4766" y2="6.65741" gradientUnits="userSpaceOnUse">
<stop stop-color="#A073E4"/>
<stop offset="1" stop-color="#99ABFC"/>
</linearGradient>
<linearGradient id="paint1_linear_8298_81277" x1="3.99272" y1="7.81777" x2="15.8311" y2="11.9487" gradientUnits="userSpaceOnUse">
<stop stop-color="#A073E4"/>
<stop offset="1" stop-color="#99ABFC"/>
</linearGradient>
<linearGradient id="paint2_linear_8298_81277" x1="3.81394" y1="11.2208" x2="15.8532" y2="15.4747" gradientUnits="userSpaceOnUse">
<stop stop-color="#A073E4"/>
<stop offset="1" stop-color="#99ABFC"/>
</linearGradient>
<clipPath id="clip0_8298_81277">
<rect width="18" height="18" fill="white"/>
</clipPath>
</defs>
</svg>
