<svg width="20" height="13" viewBox="0 0 20 13" fill="none" xmlns="http://www.w3.org/2000/svg">
<path d="M19.9782 5.34184L18.0896 12.1356C18.0522 12.2777 17.955 12.4048 17.8149 12.4949C17.6748 12.585 17.5005 12.6326 17.3219 12.6293H2.61251C2.43398 12.6326 2.25965 12.585 2.11952 12.4949C1.9794 12.4048 1.88225 12.2777 1.84479 12.1356L0.0176287 5.34184C-0.0131212 5.22705 -0.00350242 5.10752 0.0453817 4.99698C0.0942659 4.88643 0.180435 4.78934 0.294006 4.71684C0.407889 4.64409 0.54472 4.59903 0.688709 4.58686C0.832698 4.5747 0.977977 4.59593 1.10778 4.64809L5.59124 6.41684L9.30698 1.06684C9.37394 0.970657 9.47104 0.890652 9.58838 0.834989C9.70572 0.779327 9.83909 0.75 9.9749 0.75C10.1107 0.75 10.2441 0.779327 10.3614 0.834989C10.4788 0.890652 10.5759 0.970657 10.6428 1.06684L14.3586 6.42309L18.8727 4.64184C19.0035 4.58542 19.1514 4.56096 19.2988 4.57141C19.4463 4.58185 19.5868 4.62675 19.7036 4.70071C19.8204 4.77467 19.9085 4.87452 19.9572 4.98827C20.0059 5.10201 20.0132 5.2248 19.9782 5.34184Z" fill="url(#paint0_linear_8193_89122)"/>
<defs>
<linearGradient id="paint0_linear_8193_89122" x1="1.33333" y1="2.48243" x2="21.2887" y2="7.4019" gradientUnits="userSpaceOnUse">
<stop stop-color="#A073E4"/>
<stop offset="1" stop-color="#99ABFC"/>
</linearGradient>
</defs>
</svg>
