<svg width="20" height="20" viewBox="0 0 20 20" fill="none" xmlns="http://www.w3.org/2000/svg">
<path fill-rule="evenodd" clip-rule="evenodd" d="M6.6708 3.59458C5.47591 2.92132 3.96094 3.79325 3.96094 5.28339V14.7251C3.96094 16.2087 5.47744 17.0863 6.6708 16.4139L11.0464 13.9552L15.0793 11.6971C16.3707 10.9694 16.3713 9.03956 15.0799 8.31171L6.6708 3.59458ZM7.28403 2.50534C5.19567 1.32901 2.71094 2.90702 2.71094 5.28339V14.7251C2.71094 17.0915 5.19444 18.6805 7.28441 17.5029L11.6579 15.0454L15.6913 12.7871L15.6926 12.7863C17.8337 11.5807 17.8337 8.42782 15.6926 7.22214L7.28403 2.50534Z" fill="white"/>
<path d="M3.96094 5.28339C3.96094 3.79325 5.47591 2.92132 6.6708 3.59458L15.0799 8.31171C16.3713 9.03956 16.3707 10.9694 15.0793 11.6971L11.0464 13.9552L6.6708 16.4139C5.47744 17.0863 3.96094 16.2087 3.96094 14.7251V5.28339Z" fill="white"/>
</svg>
